<?xml version="1.0" standalone="no"?>
<!DOCTYPE svg PUBLIC "-//W3C//DTD SVG 20010904//EN"
 "http://www.w3.org/TR/2001/REC-SVG-20010904/DTD/svg10.dtd">
<svg version="1.0" xmlns="http://www.w3.org/2000/svg"
 width="512.000000pt" height="512.000000pt" viewBox="0 0 512.000000 512.000000"
 preserveAspectRatio="xMidYMid meet">

<g transform="translate(0.000000,512.000000) scale(0.100000,-0.100000)"
fill="#282a36" stroke="none">
<path d="M222 4301 c-66 -23 -117 -63 -159 -125 -28 -42 -60 -123 -51 -130 51
-39 2537 -1669 2546 -1670 6 -1 583 375 1282 834 l1269 835 -6 30 c-16 83 -87
171 -171 212 l-57 28 -2300 2 c-2208 2 -2302 2 -2353 -16z"/>
<path d="M0 2561 c0 -611 3 -1111 6 -1111 8 0 1685 1059 1702 1075 10 9 -159
125 -835 570 -466 307 -854 563 -860 568 -10 8 -13 -214 -13 -1102z"/>
<path d="M4257 3102 c-685 -451 -856 -568 -845 -577 25 -23 1699 -1077 1704
-1073 2 3 3 502 2 1110 l-3 1106 -858 -566z"/>
<path d="M1015 1706 c-963 -610 -1000 -635 -997 -661 8 -75 86 -171 170 -212
l57 -28 2315 0 2315 0 57 28 c84 41 161 137 170 212 3 26 -34 51 -999 661
l-1002 634 -221 -145 c-262 -172 -267 -175 -320 -175 -52 0 -57 2 -319 175
-122 80 -222 145 -224 145 -1 0 -452 -286 -1002 -634z"/>
</g>
</svg>
