<?xml version="1.0" standalone="no"?>
<!DOCTYPE svg PUBLIC "-//W3C//DTD SVG 20010904//EN"
 "http://www.w3.org/TR/2001/REC-SVG-20010904/DTD/svg10.dtd">
<svg version="1.0" xmlns="http://www.w3.org/2000/svg"
 width="512.000000pt" height="512.000000pt" viewBox="0 0 512.000000 512.000000"
 preserveAspectRatio="xMidYMid meet">

<g transform="translate(0.000000,512.000000) scale(0.100000,-0.100000)"
fill="#282a36" stroke="none">
<path d="M3700 4739 c-627 -58 -1125 -558 -1178 -1181 l-8 -103 -393 -560
c-216 -308 -398 -566 -405 -572 -7 -8 -56 -14 -136 -17 -150 -6 -259 -30 -378
-86 -47 -22 -90 -40 -96 -40 -7 0 -257 99 -557 219 l-544 220 -3 -607 c-1
-333 1 -609 5 -612 5 -4 153 -65 329 -135 l322 -128 18 -66 c26 -96 104 -244
176 -334 138 -174 351 -301 583 -348 76 -15 261 -15 342 0 396 75 707 382 780
772 l17 89 621 452 620 452 95 7 c189 15 338 57 504 142 355 181 598 503 683
907 24 115 24 361 0 483 -114 572 -585 994 -1170 1047 -113 10 -108 10 -227
-1z m345 -448 c162 -43 346 -160 445 -285 130 -163 188 -312 197 -517 12 -242
-66 -453 -231 -626 -176 -186 -384 -276 -636 -276 -408 0 -757 274 -851 669
-18 75 -20 110 -16 224 5 157 20 218 81 345 119 248 335 417 606 476 112 25
290 20 405 -10z m-2206 -2276 c362 -124 566 -531 447 -890 -167 -501 -788
-659 -1168 -297 -65 62 -138 154 -138 174 0 3 89 -29 198 -72 216 -85 272
-100 365 -100 253 1 488 187 546 434 38 158 -1 338 -102 471 -78 103 -149 147
-396 245 -160 64 -156 71 34 67 112 -3 141 -7 214 -32z"/>
<path d="M3725 4141 c-236 -39 -426 -178 -526 -384 -106 -219 -89 -486 43
-684 245 -366 762 -418 1072 -107 214 213 263 519 129 794 -38 79 -60 109
-132 181 -69 69 -103 94 -171 127 -47 23 -112 49 -145 57 -75 19 -204 26 -270
16z"/>
</g>
</svg>
