<?xml version="1.0" standalone="no"?>
<!DOCTYPE svg PUBLIC "-//W3C//DTD SVG 20010904//EN"
 "http://www.w3.org/TR/2001/REC-SVG-20010904/DTD/svg10.dtd">
<svg version="1.0" xmlns="http://www.w3.org/2000/svg"
 width="512.000000pt" height="512.000000pt" viewBox="0 0 512.000000 512.000000"
 preserveAspectRatio="xMidYMid meet">

<g transform="translate(0.000000,512.000000) scale(0.100000,-0.100000)"
fill="#282a36" stroke="none">
<path d="M376 4677 l-166 -444 0 -1781 0 -1782 610 0 610 0 0 -335 0 -335 338
0 337 0 335 335 335 335 499 0 498 0 669 661 669 662 0 1563 0 1564 -2284 0
-2283 0 -167 -443z m4292 -1227 l2 -1225 -387 -387 -388 -388 -615 0 -615 0
-330 -330 c-181 -182 -333 -330 -337 -330 -5 0 -8 149 -8 330 l0 330 -500 0
-500 0 0 1615 0 1615 1838 -2 1837 -3 3 -1225z"/>
<path d="M2220 3115 l0 -665 220 0 220 0 0 665 0 665 -220 0 -220 0 0 -665z"/>
<path d="M3440 3115 l0 -665 225 0 225 0 0 665 0 665 -225 0 -225 0 0 -665z"/>
</g>
</svg>
